{
  "version": "0.6.1",
  "modules": [
    {
      "plugin": "SubmarineFree",
      "version": "0.6.4",
      "model": "SS-221",
      "pos": [
        0,
        0
      ],
      "params": []
    },
    {
      "plugin": "SubmarineFree",
      "version": "0.6.4",
      "model": "PO-204",
      "pos": [
        7,
        0
      ],
      "params": [
        {
          "paramId": 0,
          "value": 0.0
        },
        {
          "paramId": 1,
          "value": 0.0
        },
        {
          "paramId": 2,
          "value": 5.0
        },
        {
          "paramId": 6,
          "value": 0.0
        },
        {
          "paramId": 10,
          "value": 1.0
        },
        {
          "paramId": 3,
          "value": 5.0
        },
        {
          "paramId": 7,
          "value": 0.0
        },
        {
          "paramId": 11,
          "value": 1.0
        },
        {
          "paramId": 4,
          "value": 5.0
        },
        {
          "paramId": 8,
          "value": 0.0
        },
        {
          "paramId": 12,
          "value": 1.0
        },
        {
          "paramId": 5,
          "value": 5.0
        },
        {
          "paramId": 9,
          "value": 0.0
        },
        {
          "paramId": 13,
          "value": 1.0
        }
      ]
    },
    {
      "plugin": "SubmarineFree",
      "version": "0.6.4",
      "model": "PO-204",
      "pos": [
        17,
        0
      ],
      "params": [
        {
          "paramId": 0,
          "value": 0.0
        },
        {
          "paramId": 1,
          "value": 0.0
        },
        {
          "paramId": 2,
          "value": 5.0
        },
        {
          "paramId": 6,
          "value": 0.0
        },
        {
          "paramId": 10,
          "value": 6.0
        },
        {
          "paramId": 3,
          "value": 5.0
        },
        {
          "paramId": 7,
          "value": -0.048187539
        },
        {
          "paramId": 11,
          "value": 6.0
        },
        {
          "paramId": 4,
          "value": 5.0
        },
        {
          "paramId": 8,
          "value": 0.0
        },
        {
          "paramId": 12,
          "value": 1.0
        },
        {
          "paramId": 5,
          "value": 5.0
        },
        {
          "paramId": 9,
          "value": 0.0
        },
        {
          "paramId": 13,
          "value": 1.0
        }
      ]
    },
    {
      "plugin": "SubmarineFree",
      "version": "0.6.4",
      "model": "PO-102",
      "pos": [
        0,
        1
      ],
      "params": [
        {
          "paramId": 0,
          "value": -54.7297707
        },
        {
          "paramId": 1,
          "value": -1.0
        },
        {
          "paramId": 2,
          "value": 2.0
        },
        {
          "paramId": 3,
          "value": 0.0
        },
        {
          "paramId": 4,
          "value": 0.0
        },
        {
          "paramId": 5,
          "value": 0.0
        },
        {
          "paramId": 6,
          "value": 0.0
        }
      ]
    },
    {
      "plugin": "SubmarineFree",
      "version": "0.6.4",
      "model": "PO-102",
      "pos": [
        12,
        1
      ],
      "params": [
        {
          "paramId": 0,
          "value": -22.0800114
        },
        {
          "paramId": 1,
          "value": 0.0
        },
        {
          "paramId": 2,
          "value": 0.0
        },
        {
          "paramId": 3,
          "value": 0.0
        },
        {
          "paramId": 4,
          "value": 0.0
        },
        {
          "paramId": 5,
          "value": 0.0
        },
        {
          "paramId": 6,
          "value": 0.0
        }
      ]
    },
    {
      "plugin": "SubmarineFree",
      "version": "0.6.4",
      "model": "LD-106",
      "pos": [
        24,
        1
      ],
      "params": [
        {
          "paramId": 0,
          "value": 2.38437581
        },
        {
          "paramId": 6,
          "value": 0.0
        },
        {
          "paramId": 1,
          "value": 5.0
        },
        {
          "paramId": 7,
          "value": 1.0
        },
        {
          "paramId": 2,
          "value": 5.0
        },
        {
          "paramId": 8,
          "value": 1.0
        },
        {
          "paramId": 3,
          "value": 5.0
        },
        {
          "paramId": 9,
          "value": 1.0
        },
        {
          "paramId": 4,
          "value": 5.0
        },
        {
          "paramId": 10,
          "value": 1.0
        },
        {
          "paramId": 5,
          "value": 5.0
        },
        {
          "paramId": 11,
          "value": 1.0
        }
      ],
      "data": {
        "voltage0": -10.0,
        "voltage1": 10.0
      }
    },
    {
      "plugin": "SubmarineFree",
      "version": "0.6.4",
      "model": "FF-110",
      "pos": [
        27,
        0
      ],
      "params": [],
      "data": {
        "voltage0": -10.0,
        "voltage1": 10.0
      }
    },
    {
      "plugin": "Fundamental",
      "version": "0.6.0",
      "model": "Unity",
      "pos": [
        35,
        0
      ],
      "params": [
        {
          "paramId": 0,
          "value": 0.0
        },
        {
          "paramId": 1,
          "value": 0.0
        }
      ],
      "data": {
        "merge": false
      }
    },
    {
      "plugin": "Fundamental",
      "version": "0.6.0",
      "model": "Unity",
      "pos": [
        41,
        0
      ],
      "params": [
        {
          "paramId": 0,
          "value": 0.0
        },
        {
          "paramId": 1,
          "value": 0.0
        }
      ],
      "data": {
        "merge": false
      }
    },
    {
      "plugin": "Fundamental",
      "version": "0.6.0",
      "model": "Unity",
      "pos": [
        29,
        0
      ],
      "params": [
        {
          "paramId": 0,
          "value": 0.0
        },
        {
          "paramId": 1,
          "value": 0.0
        }
      ],
      "data": {
        "merge": false
      }
    },
    {
      "plugin": "Fundamental",
      "version": "0.6.0",
      "model": "VCA",
      "pos": [
        30,
        1
      ],
      "params": [
        {
          "paramId": 0,
          "value": 1.0
        },
        {
          "paramId": 1,
          "value": 1.0
        }
      ]
    },
    {
      "plugin": "Fundamental",
      "version": "0.6.0",
      "model": "VCA",
      "pos": [
        36,
        1
      ],
      "params": [
        {
          "paramId": 0,
          "value": 1.0
        },
        {
          "paramId": 1,
          "value": 1.0
        }
      ]
    },
    {
      "plugin": "Fundamental",
      "version": "0.6.0",
      "model": "SequentialSwitch2",
      "pos": [
        42,
        1
      ],
      "params": [
        {
          "paramId": 0,
          "value": 1.0
        }
      ]
    },
    {
      "plugin": "Fundamental",
      "version": "0.6.0",
      "model": "8vert",
      "pos": [
        45,
        1
      ],
      "params": [
        {
          "paramId": 0,
          "value": 0.0
        },
        {
          "paramId": 1,
          "value": 0.0
        },
        {
          "paramId": 2,
          "value": 0.0
        },
        {
          "paramId": 3,
          "value": 0.0
        },
        {
          "paramId": 4,
          "value": 0.0
        },
        {
          "paramId": 5,
          "value": 0.0
        },
        {
          "paramId": 6,
          "value": 0.0
        },
        {
          "paramId": 7,
          "value": 0.0
        }
      ]
    },
    {
      "plugin": "Fundamental",
      "version": "0.6.0",
      "model": "Scope",
      "pos": [
        56,
        0
      ],
      "params": [
        {
          "paramId": 0,
          "value": -1.0
        },
        {
          "paramId": 1,
          "value": 0.0
        },
        {
          "paramId": 2,
          "value": -1.0
        },
        {
          "paramId": 3,
          "value": 0.0
        },
        {
          "paramId": 4,
          "value": -16.0
        },
        {
          "paramId": 5,
          "value": 0.0
        },
        {
          "paramId": 6,
          "value": 0.0
        },
        {
          "paramId": 7,
          "value": 0.0
        }
      ],
      "data": {
        "lissajous": 1,
        "external": 0
      }
    },
    {
      "plugin": "Fundamental",
      "version": "0.6.0",
      "model": "Scope",
      "pos": [
        71,
        0
      ],
      "params": [
        {
          "paramId": 0,
          "value": 0.0
        },
        {
          "paramId": 1,
          "value": 0.0
        },
        {
          "paramId": 2,
          "value": 0.0
        },
        {
          "paramId": 3,
          "value": 0.0
        },
        {
          "paramId": 4,
          "value": -16.0
        },
        {
          "paramId": 5,
          "value": 0.0
        },
        {
          "paramId": 6,
          "value": -1.1920929e-7
        },
        {
          "paramId": 7,
          "value": 0.0
        }
      ],
      "data": {
        "lissajous": 0,
        "external": 0
      }
    },
    {
      "plugin": "Fundamental",
      "version": "0.6.0",
      "model": "VCA",
      "pos": [
        53,
        1
      ],
      "params": [
        {
          "paramId": 0,
          "value": 0.5
        },
        {
          "paramId": 1,
          "value": 1.0
        }
      ]
    },
    {
      "plugin": "JW-Modules",
      "version": "0.6.1",
      "model": "FullScope",
      "pos": [
        59,
        1
      ],
      "params": [
        {
          "paramId": 1,
          "value": 0.0
        },
        {
          "paramId": 3,
          "value": 0.0
        },
        {
          "paramId": 0,
          "value": 0.219999969
        },
        {
          "paramId": 2,
          "value": -0.110000066
        },
        {
          "paramId": 8,
          "value": 0.0
        },
        {
          "paramId": 4,
          "value": -14.0
        }
      ],
      "data": {
        "lissajous": 1,
        "external": 0
      },
      "width": 330.0
    }
  ],
  "wires": [
    {
      "color": "#c9b70e",
      "outputModuleId": 0,
      "outputId": 8,
      "inputModuleId": 1,
      "inputId": 1
    },
    {
      "color": "#c91847",
      "outputModuleId": 1,
      "outputId": 0,
      "inputModuleId": 8,
      "inputId": 8
    },
    {
      "color": "#0c8e15",
      "outputModuleId": 1,
      "outputId": 0,
      "inputModuleId": 6,
      "inputId": 0
    },
    {
      "color": "#c9b70e",
      "outputModuleId": 0,
      "outputId": 8,
      "inputModuleId": 2,
      "inputId": 0
    },
    {
      "color": "#c91847",
      "outputModuleId": 2,
      "outputId": 0,
      "inputModuleId": 10,
      "inputId": 2
    },
    {
      "color": "#0c8e15",
      "outputModuleId": 0,
      "outputId": 9,
      "inputModuleId": 10,
      "inputId": 1
    },
    {
      "color": "#0986ad",
      "outputModuleId": 10,
      "outputId": 0,
      "inputModuleId": 8,
      "inputId": 6
    },
    {
      "color": "#0c8e15",
      "outputModuleId": 8,
      "outputId": 0,
      "inputModuleId": 14,
      "inputId": 0
    },
    {
      "color": "#0986ad",
      "outputModuleId": 8,
      "outputId": 2,
      "inputModuleId": 14,
      "inputId": 1
    },
    {
      "color": "#0c8e15",
      "outputModuleId": 6,
      "outputId": 1,
      "inputModuleId": 13,
      "inputId": 4
    },
    {
      "color": "#0986ad",
      "outputModuleId": 13,
      "outputId": 4,
      "inputModuleId": 8,
      "inputId": 10
    },
    {
      "color": "#c9b70e",
      "outputModuleId": 1,
      "outputId": 1,
      "inputModuleId": 9,
      "inputId": 0
    },
    {
      "color": "#c91847",
      "outputModuleId": 0,
      "outputId": 5,
      "inputModuleId": 9,
      "inputId": 2
    },
    {
      "color": "#0c8e15",
      "outputModuleId": 9,
      "outputId": 0,
      "inputModuleId": 10,
      "inputId": 5
    },
    {
      "color": "#0986ad",
      "outputModuleId": 1,
      "outputId": 0,
      "inputModuleId": 5,
      "inputId": 0
    },
    {
      "color": "#c9b70e",
      "outputModuleId": 5,
      "outputId": 0,
      "inputModuleId": 10,
      "inputId": 4
    },
    {
      "color": "#0c8e15",
      "outputModuleId": 10,
      "outputId": 1,
      "inputModuleId": 9,
      "inputId": 6
    },
    {
      "color": "#0986ad",
      "outputModuleId": 2,
      "outputId": 1,
      "inputModuleId": 11,
      "inputId": 5
    },
    {
      "color": "#c9b70e",
      "outputModuleId": 11,
      "outputId": 1,
      "inputModuleId": 8,
      "inputId": 0
    },
    {
      "color": "#c91847",
      "outputModuleId": 6,
      "outputId": 0,
      "inputModuleId": 13,
      "inputId": 3
    },
    {
      "color": "#0986ad",
      "outputModuleId": 13,
      "outputId": 3,
      "inputModuleId": 8,
      "inputId": 2
    },
    {
      "color": "#c9b70e",
      "outputModuleId": 0,
      "outputId": 9,
      "inputModuleId": 9,
      "inputId": 8
    },
    {
      "color": "#c91847",
      "outputModuleId": 9,
      "outputId": 2,
      "inputModuleId": 11,
      "inputId": 4
    },
    {
      "color": "#0c8e15",
      "outputModuleId": 1,
      "outputId": 2,
      "inputModuleId": 11,
      "inputId": 2
    },
    {
      "color": "#c9b70e",
      "outputModuleId": 3,
      "outputId": 0,
      "inputModuleId": 1,
      "inputId": 7
    },
    {
      "color": "#c91847",
      "outputModuleId": 1,
      "outputId": 0,
      "inputModuleId": 7,
      "inputId": 0
    },
    {
      "color": "#0c8e15",
      "outputModuleId": 0,
      "outputId": 5,
      "inputModuleId": 7,
      "inputId": 2
    },
    {
      "color": "#0986ad",
      "outputModuleId": 7,
      "outputId": 0,
      "inputModuleId": 11,
      "inputId": 1
    },
    {
      "color": "#c9b70e",
      "outputModuleId": 11,
      "outputId": 0,
      "inputModuleId": 13,
      "inputId": 2
    },
    {
      "color": "#c91847",
      "outputModuleId": 13,
      "outputId": 2,
      "inputModuleId": 8,
      "inputId": 1
    },
    {
      "color": "#0c8e15",
      "outputModuleId": 4,
      "outputId": 0,
      "inputModuleId": 12,
      "inputId": 2
    },
    {
      "color": "#0986ad",
      "outputModuleId": 4,
      "outputId": 5,
      "inputModuleId": 12,
      "inputId": 3
    },
    {
      "color": "#c9b70e",
      "outputModuleId": 4,
      "outputId": 11,
      "inputModuleId": 12,
      "inputId": 4
    },
    {
      "color": "#c91847",
      "outputModuleId": 6,
      "outputId": 0,
      "inputModuleId": 12,
      "inputId": 0
    },
    {
      "color": "#0c8e15",
      "outputModuleId": 12,
      "outputId": 0,
      "inputModuleId": 16,
      "inputId": 5
    },
    {
      "color": "#c9b70e",
      "outputModuleId": 7,
      "outputId": 0,
      "inputModuleId": 16,
      "inputId": 4
    },
    {
      "color": "#c91847",
      "outputModuleId": 16,
      "outputId": 1,
      "inputModuleId": 13,
      "inputId": 1
    },
    {
      "color": "#0c8e15",
      "outputModuleId": 13,
      "outputId": 1,
      "inputModuleId": 8,
      "inputId": 3
    },
    {
      "color": "#0986ad",
      "outputModuleId": 8,
      "outputId": 0,
      "inputModuleId": 17,
      "inputId": 0
    },
    {
      "color": "#c9b70e",
      "outputModuleId": 8,
      "outputId": 2,
      "inputModuleId": 17,
      "inputId": 1
    }
  ]
}