{
  "version": "0.6.1",
  "modules": [
    {
      "plugin": "JW-Modules",
      "version": "0.6.1",
      "model": "FullScope",
      "pos": [
        61,
        0
      ],
      "params": [
        {
          "paramId": 1,
          "value": 0.0
        },
        {
          "paramId": 3,
          "value": 0.0
        },
        {
          "paramId": 0,
          "value": 0.669999778
        },
        {
          "paramId": 2,
          "value": 1.0
        },
        {
          "paramId": 8,
          "value": 0.0
        },
        {
          "paramId": 4,
          "value": -14.0
        }
      ],
      "data": {
        "lissajous": 1,
        "external": 0
      },
      "width": 375.0
    },
    {
      "plugin": "Fundamental",
      "version": "0.6.0",
      "model": "8vert",
      "pos": [
        46,
        0
      ],
      "params": [
        {
          "paramId": 0,
          "value": 1.0
        },
        {
          "paramId": 1,
          "value": 1.0
        },
        {
          "paramId": 2,
          "value": 1.0
        },
        {
          "paramId": 3,
          "value": 0.0
        },
        {
          "paramId": 4,
          "value": 0.0
        },
        {
          "paramId": 5,
          "value": 0.0
        },
        {
          "paramId": 6,
          "value": 0.0
        },
        {
          "paramId": 7,
          "value": 0.0
        }
      ]
    },
    {
      "plugin": "Fundamental",
      "version": "0.6.0",
      "model": "VCA",
      "pos": [
        55,
        0
      ],
      "params": [
        {
          "paramId": 0,
          "value": 0.737000108
        },
        {
          "paramId": 1,
          "value": 0.5
        }
      ]
    },
    {
      "plugin": "Fundamental",
      "version": "0.6.0",
      "model": "Unity",
      "pos": [
        20,
        0
      ],
      "params": [
        {
          "paramId": 0,
          "value": 0.0
        },
        {
          "paramId": 1,
          "value": 0.0
        }
      ],
      "data": {
        "merge": false
      }
    },
    {
      "plugin": "Fundamental",
      "version": "0.6.0",
      "model": "SequentialSwitch2",
      "pos": [
        49,
        1
      ],
      "params": [
        {
          "paramId": 0,
          "value": 0.0
        }
      ]
    },
    {
      "plugin": "SubmarineFree",
      "version": "0.6.4",
      "model": "PO-204",
      "pos": [
        5,
        0
      ],
      "params": [
        {
          "paramId": 0,
          "value": 0.0
        },
        {
          "paramId": 1,
          "value": 0.0
        },
        {
          "paramId": 2,
          "value": 5.0
        },
        {
          "paramId": 6,
          "value": 0.0
        },
        {
          "paramId": 10,
          "value": 1.0
        },
        {
          "paramId": 3,
          "value": 5.0
        },
        {
          "paramId": 7,
          "value": 0.0
        },
        {
          "paramId": 11,
          "value": 1.0
        },
        {
          "paramId": 4,
          "value": 5.0
        },
        {
          "paramId": 8,
          "value": 0.0
        },
        {
          "paramId": 12,
          "value": 2.0
        },
        {
          "paramId": 5,
          "value": 5.0
        },
        {
          "paramId": 9,
          "value": 0.0
        },
        {
          "paramId": 13,
          "value": 1.0
        }
      ]
    },
    {
      "plugin": "SubmarineFree",
      "version": "0.6.4",
      "model": "LA-108",
      "pos": [
        66,
        1
      ],
      "params": [
        {
          "paramId": 0,
          "value": 0.0
        },
        {
          "paramId": 1,
          "value": 1.0
        },
        {
          "paramId": 5,
          "value": 0.0
        },
        {
          "paramId": 6,
          "value": 0.0
        },
        {
          "paramId": 2,
          "value": -14.0
        },
        {
          "paramId": 3,
          "value": 0.0
        },
        {
          "paramId": 4,
          "value": 1.0
        },
        {
          "paramId": 7,
          "value": 0.0
        }
      ],
      "data": {
        "voltage0": -10.0,
        "voltage1": 10.0
      }
    },
    {
      "plugin": "SubmarineFree",
      "version": "0.6.4",
      "model": "SS-221",
      "pos": [
        0,
        0
      ],
      "params": []
    },
    {
      "plugin": "SubmarineFree",
      "version": "0.6.4",
      "model": "PO-204",
      "pos": [
        25,
        1
      ],
      "params": [
        {
          "paramId": 0,
          "value": 20.9520168
        },
        {
          "paramId": 1,
          "value": 0.0
        },
        {
          "paramId": 2,
          "value": 5.0
        },
        {
          "paramId": 6,
          "value": 0.0
        },
        {
          "paramId": 10,
          "value": 2.0
        },
        {
          "paramId": 3,
          "value": 5.0
        },
        {
          "paramId": 7,
          "value": 0.0
        },
        {
          "paramId": 11,
          "value": 1.0
        },
        {
          "paramId": 4,
          "value": 5.0
        },
        {
          "paramId": 8,
          "value": 0.0
        },
        {
          "paramId": 12,
          "value": 1.0
        },
        {
          "paramId": 5,
          "value": 5.0
        },
        {
          "paramId": 9,
          "value": 0.0
        },
        {
          "paramId": 13,
          "value": 1.0
        }
      ]
    },
    {
      "plugin": "Fundamental",
      "version": "0.6.0",
      "model": "VCA",
      "pos": [
        26,
        0
      ],
      "params": [
        {
          "paramId": 0,
          "value": 1.0
        },
        {
          "paramId": 1,
          "value": 0.5
        }
      ]
    },
    {
      "plugin": "SubmarineFree",
      "version": "0.6.4",
      "model": "XF-101",
      "pos": [
        37,
        1
      ],
      "params": [
        {
          "paramId": 0,
          "value": 1.0
        },
        {
          "paramId": 1,
          "value": 0.0
        },
        {
          "paramId": 2,
          "value": 10.0
        }
      ]
    },
    {
      "plugin": "SubmarineFree",
      "version": "0.6.4",
      "model": "FF-110",
      "pos": [
        35,
        1
      ],
      "params": [],
      "data": {
        "voltage0": -5.0,
        "voltage1": 5.0
      }
    },
    {
      "plugin": "Fundamental",
      "version": "0.6.0",
      "model": "8vert",
      "pos": [
        52,
        1
      ],
      "params": [
        {
          "paramId": 0,
          "value": -1.0
        },
        {
          "paramId": 1,
          "value": 0.0
        },
        {
          "paramId": 2,
          "value": 0.0
        },
        {
          "paramId": 3,
          "value": 0.0
        },
        {
          "paramId": 4,
          "value": 0.0
        },
        {
          "paramId": 5,
          "value": 0.0
        },
        {
          "paramId": 6,
          "value": 0.0
        },
        {
          "paramId": 7,
          "value": 0.0
        }
      ]
    },
    {
      "plugin": "SubmarineFree",
      "version": "0.6.4",
      "model": "AG-106",
      "pos": [
        60,
        1
      ],
      "params": [],
      "data": {
        "voltage0": -5.0,
        "voltage1": 5.0
      }
    },
    {
      "plugin": "SubmarineFree",
      "version": "0.6.4",
      "model": "PO-102",
      "pos": [
        0,
        1
      ],
      "params": [
        {
          "paramId": 0,
          "value": -28.044014
        },
        {
          "paramId": 1,
          "value": 0.0
        },
        {
          "paramId": 2,
          "value": 0.0
        },
        {
          "paramId": 3,
          "value": 0.0
        },
        {
          "paramId": 4,
          "value": 0.0
        },
        {
          "paramId": 5,
          "value": 0.0
        },
        {
          "paramId": 6,
          "value": 0.0
        }
      ]
    },
    {
      "plugin": "Fundamental",
      "version": "0.6.0",
      "model": "VCA",
      "pos": [
        19,
        1
      ],
      "params": [
        {
          "paramId": 0,
          "value": 0.5
        },
        {
          "paramId": 1,
          "value": 0.5
        }
      ]
    },
    {
      "plugin": "Fundamental",
      "version": "0.6.0",
      "model": "Unity",
      "pos": [
        12,
        1
      ],
      "params": [
        {
          "paramId": 0,
          "value": 0.0
        },
        {
          "paramId": 1,
          "value": 0.0
        }
      ],
      "data": {
        "merge": false
      }
    },
    {
      "plugin": "SubmarineFree",
      "version": "0.6.4",
      "model": "PO-102",
      "pos": [
        33,
        0
      ],
      "params": [
        {
          "paramId": 0,
          "value": -96.0
        },
        {
          "paramId": 1,
          "value": 0.0
        },
        {
          "paramId": 2,
          "value": 0.0
        },
        {
          "paramId": 3,
          "value": 0.0
        },
        {
          "paramId": 4,
          "value": 0.0
        },
        {
          "paramId": 5,
          "value": 0.0
        },
        {
          "paramId": 6,
          "value": 0.0
        }
      ]
    }
  ],
  "wires": [
    {
      "color": "#0c8e15",
      "outputModuleId": 7,
      "outputId": 8,
      "inputModuleId": 5,
      "inputId": 1
    },
    {
      "color": "#c9b70e",
      "outputModuleId": 5,
      "outputId": 0,
      "inputModuleId": 6,
      "inputId": 0
    },
    {
      "color": "#c91847",
      "outputModuleId": 5,
      "outputId": 0,
      "inputModuleId": 1,
      "inputId": 0
    },
    {
      "color": "#0c8e15",
      "outputModuleId": 1,
      "outputId": 0,
      "inputModuleId": 2,
      "inputId": 2
    },
    {
      "color": "#0986ad",
      "outputModuleId": 2,
      "outputId": 0,
      "inputModuleId": 0,
      "inputId": 1
    },
    {
      "color": "#c9b70e",
      "outputModuleId": 8,
      "outputId": 0,
      "inputModuleId": 9,
      "inputId": 2
    },
    {
      "color": "#c91847",
      "outputModuleId": 1,
      "outputId": 1,
      "inputModuleId": 2,
      "inputId": 5
    },
    {
      "color": "#0c8e15",
      "outputModuleId": 2,
      "outputId": 1,
      "inputModuleId": 0,
      "inputId": 0
    },
    {
      "color": "#c9b70e",
      "outputModuleId": 9,
      "outputId": 0,
      "inputModuleId": 3,
      "inputId": 6
    },
    {
      "color": "#0c8e15",
      "outputModuleId": 7,
      "outputId": 9,
      "inputModuleId": 10,
      "inputId": 0
    },
    {
      "color": "#0986ad",
      "outputModuleId": 10,
      "outputId": 0,
      "inputModuleId": 9,
      "inputId": 1
    },
    {
      "color": "#0986ad",
      "outputModuleId": 5,
      "outputId": 1,
      "inputModuleId": 3,
      "inputId": 0
    },
    {
      "color": "#c9b70e",
      "outputModuleId": 5,
      "outputId": 1,
      "inputModuleId": 3,
      "inputId": 2
    },
    {
      "color": "#c91847",
      "outputModuleId": 3,
      "outputId": 0,
      "inputModuleId": 10,
      "inputId": 1
    },
    {
      "color": "#0c8e15",
      "outputModuleId": 7,
      "outputId": 7,
      "inputModuleId": 5,
      "inputId": 3
    },
    {
      "color": "#0986ad",
      "outputModuleId": 5,
      "outputId": 2,
      "inputModuleId": 11,
      "inputId": 0
    },
    {
      "color": "#c9b70e",
      "outputModuleId": 11,
      "outputId": 0,
      "inputModuleId": 13,
      "inputId": 0
    },
    {
      "color": "#c91847",
      "outputModuleId": 5,
      "outputId": 2,
      "inputModuleId": 12,
      "inputId": 0
    },
    {
      "color": "#0c8e15",
      "outputModuleId": 12,
      "outputId": 0,
      "inputModuleId": 13,
      "inputId": 6
    },
    {
      "color": "#0c8e15",
      "outputModuleId": 13,
      "outputId": 0,
      "inputModuleId": 10,
      "inputId": 2
    },
    {
      "color": "#0986ad",
      "outputModuleId": 14,
      "outputId": 0,
      "inputModuleId": 15,
      "inputId": 2
    },
    {
      "color": "#0986ad",
      "outputModuleId": 15,
      "outputId": 1,
      "inputModuleId": 1,
      "inputId": 2
    },
    {
      "color": "#c9b70e",
      "outputModuleId": 1,
      "outputId": 2,
      "inputModuleId": 3,
      "inputId": 8
    },
    {
      "color": "#c91847",
      "outputModuleId": 3,
      "outputId": 2,
      "inputModuleId": 1,
      "inputId": 1
    },
    {
      "color": "#0c8e15",
      "outputModuleId": 1,
      "outputId": 2,
      "inputModuleId": 3,
      "inputId": 10
    },
    {
      "color": "#c9b70e",
      "outputModuleId": 7,
      "outputId": 5,
      "inputModuleId": 16,
      "inputId": 2
    },
    {
      "color": "#c9b70e",
      "outputModuleId": 16,
      "outputId": 0,
      "inputModuleId": 15,
      "inputId": 1
    },
    {
      "color": "#c91847",
      "outputModuleId": 5,
      "outputId": 0,
      "inputModuleId": 16,
      "inputId": 0
    },
    {
      "color": "#0c8e15",
      "outputModuleId": 17,
      "outputId": 0,
      "inputModuleId": 16,
      "inputId": 6
    },
    {
      "color": "#0986ad",
      "outputModuleId": 15,
      "outputId": 0,
      "inputModuleId": 15,
      "inputId": 4
    },
    {
      "color": "#c9b70e",
      "outputModuleId": 7,
      "outputId": 5,
      "inputModuleId": 16,
      "inputId": 8
    },
    {
      "color": "#c91847",
      "outputModuleId": 16,
      "outputId": 2,
      "inputModuleId": 15,
      "inputId": 5
    }
  ]
}