{
  "version": "0.6.1dev",
  "modules": [
    {
      "plugin": "SubmarineFree",
      "version": "0.6.5",
      "model": "SS-212",
      "pos": [
        0,
        0
      ],
      "params": [],
      "data": {
        "octave": -2
      }
    },
    {
      "plugin": "Fundamental",
      "version": "0.6.0",
      "model": "Scope",
      "pos": [
        43,
        0
      ],
      "params": [
        {
          "paramId": 0,
          "value": 3.0
        },
        {
          "paramId": 1,
          "value": 0.0
        },
        {
          "paramId": 2,
          "value": 0.0
        },
        {
          "paramId": 3,
          "value": 0.0
        },
        {
          "paramId": 4,
          "value": -15.8300009
        },
        {
          "paramId": 5,
          "value": 0.0
        },
        {
          "paramId": 6,
          "value": 0.960000515
        },
        {
          "paramId": 7,
          "value": 0.0
        }
      ],
      "data": {
        "lissajous": 0,
        "external": 0
      }
    },
    {
      "plugin": "SubmarineFree",
      "version": "0.6.5",
      "model": "PO-204",
      "pos": [
        2,
        0
      ],
      "params": [
        {
          "paramId": 0,
          "value": 0.0
        },
        {
          "paramId": 1,
          "value": 0.0
        },
        {
          "paramId": 2,
          "value": 5.0
        },
        {
          "paramId": 6,
          "value": 0.0
        },
        {
          "paramId": 10,
          "value": 1.0
        },
        {
          "paramId": 3,
          "value": 5.0
        },
        {
          "paramId": 7,
          "value": 0.0
        },
        {
          "paramId": 11,
          "value": 1.0
        },
        {
          "paramId": 4,
          "value": 5.0
        },
        {
          "paramId": 8,
          "value": 0.0
        },
        {
          "paramId": 12,
          "value": 1.0
        },
        {
          "paramId": 5,
          "value": 5.0
        },
        {
          "paramId": 9,
          "value": 0.0
        },
        {
          "paramId": 13,
          "value": 1.0
        }
      ]
    },
    {
      "plugin": "SubmarineFree",
      "version": "0.6.5",
      "model": "A0-106",
      "pos": [
        15,
        0
      ],
      "params": [
        {
          "paramId": 0,
          "value": 115.0
        },
        {
          "paramId": 6,
          "value": 0.0
        },
        {
          "paramId": 1,
          "value": 15.0
        },
        {
          "paramId": 7,
          "value": 2616.0
        },
        {
          "paramId": 2,
          "value": 23.0
        },
        {
          "paramId": 8,
          "value": 4800.0
        },
        {
          "paramId": 3,
          "value": 23.0
        },
        {
          "paramId": 9,
          "value": 10000.0
        },
        {
          "paramId": 4,
          "value": 4.0
        },
        {
          "paramId": 10,
          "value": 0.0
        },
        {
          "paramId": 5,
          "value": 38.0
        },
        {
          "paramId": 11,
          "value": 100.0
        }
      ]
    }
  ],
  "wires": [
    {
      "color": "#c9b70e",
      "outputModuleId": 0,
      "outputId": 0,
      "inputModuleId": 3,
      "inputId": 0
    },
    {
      "color": "#0986ad",
      "outputModuleId": 0,
      "outputId": 0,
      "inputModuleId": 2,
      "inputId": 0
    },
    {
      "color": "#c9b70e",
      "outputModuleId": 3,
      "outputId": 6,
      "inputModuleId": 3,
      "inputId": 4
    },
    {
      "color": "#0c8e15",
      "outputModuleId": 3,
      "outputId": 5,
      "inputModuleId": 1,
      "inputId": 0
    }
  ]
}