{
  "version": "0.6.2b",
  "modules": [
    {
      "plugin": "SubmarineFree",
      "version": "0.6.8",
      "model": "LA-108",
      "params": [
        {
          "paramId": 0,
          "value": 0.0
        },
        {
          "paramId": 1,
          "value": 0.0
        },
        {
          "paramId": 5,
          "value": 1.0
        },
        {
          "paramId": 6,
          "value": 0.0
        },
        {
          "paramId": 2,
          "value": -7.03998661
        },
        {
          "paramId": 3,
          "value": 0.0614999905
        },
        {
          "paramId": 4,
          "value": 0.461500615
        },
        {
          "paramId": 7,
          "value": 32.0
        }
      ],
      "data": {
        "voltage0": 0.0,
        "voltage1": 1.0
      },
      "pos": [
        23,
        0
      ]
    },
    {
      "plugin": "Core",
      "version": "0.6.2b",
      "model": "AudioInterface",
      "params": [],
      "data": {
        "audio": {
          "driver": 6,
          "deviceName": "Speakers (Logitech USB Headset)",
          "offset": 0,
          "maxChannels": 8,
          "sampleRate": 48000,
          "blockSize": 256
        }
      },
      "pos": [
        43,
        0
      ]
    },
    {
      "plugin": "SubmarineFree",
      "version": "0.6.8",
      "model": "A0-112",
      "params": [
        {
          "paramId": 0,
          "value": 16.0
        },
        {
          "paramId": 12,
          "value": 45.0
        },
        {
          "paramId": 1,
          "value": 3.0
        },
        {
          "paramId": 13,
          "value": 0.0
        },
        {
          "paramId": 2,
          "value": 4.0
        },
        {
          "paramId": 14,
          "value": 0.0
        },
        {
          "paramId": 3,
          "value": 38.0
        },
        {
          "paramId": 15,
          "value": 100.0
        },
        {
          "paramId": 4,
          "value": 3.0
        },
        {
          "paramId": 16,
          "value": -5.0
        },
        {
          "paramId": 5,
          "value": 145.0
        },
        {
          "paramId": 17,
          "value": 0.0
        },
        {
          "paramId": 6,
          "value": 1.0
        },
        {
          "paramId": 18,
          "value": 1.0
        },
        {
          "paramId": 7,
          "value": 18.0
        },
        {
          "paramId": 19,
          "value": 99.0
        },
        {
          "paramId": 8,
          "value": 37.0
        },
        {
          "paramId": 20,
          "value": 0.0
        },
        {
          "paramId": 9,
          "value": 3.0
        },
        {
          "paramId": 21,
          "value": -5.0
        },
        {
          "paramId": 10,
          "value": 145.0
        },
        {
          "paramId": 22,
          "value": 0.0
        },
        {
          "paramId": 11,
          "value": 0.0
        },
        {
          "paramId": 23,
          "value": 0.0
        }
      ],
      "pos": [
        6,
        0
      ]
    }
  ],
  "wires": [
    {
      "color": "#b700b5",
      "outputModuleId": 2,
      "outputId": 0,
      "inputModuleId": 2,
      "inputId": 6
    },
    {
      "color": "#b700b5",
      "outputModuleId": 2,
      "outputId": 0,
      "inputModuleId": 2,
      "inputId": 0
    },
    {
      "color": "#c9b70e",
      "outputModuleId": 2,
      "outputId": 2,
      "inputModuleId": 2,
      "inputId": 2
    },
    {
      "color": "#c91847",
      "outputModuleId": 2,
      "outputId": 6,
      "inputModuleId": 0,
      "inputId": 1
    },
    {
      "color": "#0c8e15",
      "outputModuleId": 2,
      "outputId": 4,
      "inputModuleId": 0,
      "inputId": 0
    }
  ]
}